<?xml version="1.0" standalone="no"?>
<svg xmlns:xlink="http://www.w3.org/1999/xlink" id="wave" style="transform:rotate(180deg); transition: 0.3s" viewBox="0 0 1440 100" version="1.1" xmlns="http://www.w3.org/2000/svg"><defs><linearGradient id="sw-gradient-0" x1="0" x2="0" y1="1" y2="0"><stop stop-color="rgba(255, 249, 234, 1)" offset="0%" data-darkreader-inline-stopcolor="" style="--darkreader-inline-stopcolor: var(--darkreader-background-fff9ea, #302200);"/><stop stop-color="rgba(255, 249, 234, 1)" offset="100%" data-darkreader-inline-stopcolor="" style="--darkreader-inline-stopcolor: var(--darkreader-background-fff9ea, #302200);"/></linearGradient></defs><path style="transform:translate(0, 0px); opacity:1" fill="url(#sw-gradient-0)" d="M0,90L34.3,75C68.6,60,137,30,206,28.3C274.3,27,343,53,411,60C480,67,549,53,617,43.3C685.7,33,754,27,823,30C891.4,33,960,47,1029,46.7C1097.1,47,1166,33,1234,38.3C1302.9,43,1371,67,1440,65C1508.6,63,1577,37,1646,25C1714.3,13,1783,17,1851,15C1920,13,1989,7,2057,11.7C2125.7,17,2194,33,2263,48.3C2331.4,63,2400,77,2469,83.3C2537.1,90,2606,90,2674,80C2742.9,70,2811,50,2880,46.7C2948.6,43,3017,57,3086,66.7C3154.3,77,3223,83,3291,83.3C3360,83,3429,77,3497,76.7C3565.7,77,3634,83,3703,85C3771.4,87,3840,83,3909,78.3C3977.1,73,4046,67,4114,61.7C4182.9,57,4251,53,4320,45C4388.6,37,4457,23,4526,25C4594.3,27,4663,43,4731,55C4800,67,4869,73,4903,76.7L4937.1,80L4937.1,100L4902.9,100C4868.6,100,4800,100,4731,100C4662.9,100,4594,100,4526,100C4457.1,100,4389,100,4320,100C4251.4,100,4183,100,4114,100C4045.7,100,3977,100,3909,100C3840,100,3771,100,3703,100C3634.3,100,3566,100,3497,100C3428.6,100,3360,100,3291,100C3222.9,100,3154,100,3086,100C3017.1,100,2949,100,2880,100C2811.4,100,2743,100,2674,100C2605.7,100,2537,100,2469,100C2400,100,2331,100,2263,100C2194.3,100,2126,100,2057,100C1988.6,100,1920,100,1851,100C1782.9,100,1714,100,1646,100C1577.1,100,1509,100,1440,100C1371.4,100,1303,100,1234,100C1165.7,100,1097,100,1029,100C960,100,891,100,823,100C754.3,100,686,100,617,100C548.6,100,480,100,411,100C342.9,100,274,100,206,100C137.1,100,69,100,34,100L0,100Z"/></svg>